<svg xmlns="http://www.w3.org/2000/svg" viewBox="0 0 32 32" width="32" height="32">
  <rect width="32" height="32" fill="#001100"/>
  <g fill="#00ff00">
    <!-- Row 1: 0,0,0,0,1,0,0,0,0,0,0 -->
    <rect x="16" y="4" width="3" height="3"/>
    <!-- Row 2: 0,0,0,1,1,1,1,1,0,0,0 -->
    <rect x="12" y="8" width="3" height="3"/>
    <rect x="16" y="8" width="3" height="3"/>
    <rect x="20" y="8" width="3" height="3"/>
    <rect x="24" y="8" width="3" height="3"/>
    <!-- Row 3: 0,0,1,1,1,1,1,1,1,0,0 -->
    <rect x="8" y="12" width="3" height="3"/>
    <rect x="12" y="12" width="3" height="3"/>
    <rect x="16" y="12" width="3" height="3"/>
    <rect x="20" y="12" width="3" height="3"/>
    <rect x="24" y="12" width="3" height="3"/>
    <!-- Row 4: 0,1,1,0,1,1,1,0,1,1,0 -->
    <rect x="4" y="16" width="3" height="3"/>
    <rect x="8" y="16" width="3" height="3"/>
    <rect x="16" y="16" width="3" height="3"/>
    <rect x="24" y="16" width="3" height="3"/>
    <rect x="28" y="16" width="3" height="3"/>
    <!-- Row 5: 1,1,1,1,1,1,1,1,1,1,1 -->
    <rect x="4" y="20" width="3" height="3"/>
    <rect x="8" y="20" width="3" height="3"/>
    <rect x="12" y="20" width="3" height="3"/>
    <rect x="16" y="20" width="3" height="3"/>
    <rect x="20" y="20" width="3" height="3"/>
    <rect x="24" y="20" width="3" height="3"/>
    <rect x="28" y="20" width="3" height="3"/>
    <!-- Row 6: 1,0,1,1,1,1,1,1,1,0,1 -->
    <rect x="4" y="24" width="3" height="3"/>
    <rect x="12" y="24" width="3" height="3"/>
    <rect x="16" y="24" width="3" height="3"/>
    <rect x="20" y="24" width="3" height="3"/>
    <rect x="24" y="24" width="3" height="3"/>
    <rect x="28" y="24" width="3" height="3"/>
    <!-- Row 7: 1,0,1,0,0,0,0,0,1,0,1 -->
    <rect x="4" y="28" width="3" height="3"/>
    <rect x="12" y="28" width="3" height="3"/>
    <rect x="28" y="28" width="3" height="3"/>
  </g>
  <!-- Eyes (darker) -->
  <g fill="#003300">
    <rect x="8" y="16" width="3" height="3"/>
    <rect x="24" y="16" width="3" height="3"/>
  </g>
</svg>
